<svg id="Livello_1" data-name="Livello 1" xmlns="http://www.w3.org/2000/svg" viewBox="0 0 414.16 419.06"><defs><style>.cls-1{fill:#fff;}</style></defs><path class="cls-1" d="M343.18,213.83V354.64c-.85.05-1.66.13-2.47.13-10.21,0-20.41-.08-30.61.05-2.24,0-3.29-.79-4.23-2.67q-12.72-25.68-25.58-51.3c-.22-.43-.45-.86-.82-1.56,0,2.87,0,5.42,0,8-.06,21.8-10.22,37-30.08,45.74-14.63,6.41-30.14,8-45.91,7.48-20.66-.74-40.43-5.4-58.79-15-38.79-20.29-63.15-51.71-71-95-6.06-33.29-.17-64.7,18-93.38C109.17,129.41,134,110.61,165.25,101c40.13-12.34,78.82-8.33,115.34,12.66,22.45,12.9,39.51,31.15,51.33,54.23.34.68.64,1.38,1.11,2.4l-26.17,6.86q-35.6,9.33-71.2,18.7c-1.93.51-2.92.3-4-1.55-8.42-13.83-17.81-26.95-29.6-38.17-7.06-6.73-14.74-12.59-24.23-15.57a29.11,29.11,0,0,0-18.06-.11c-12.2,4-18,13.5-16.56,26.67,1.18,10.51,4.46,20.42,8.73,30a511.28,511.28,0,0,0,54.34,94.06c6.25,8.52,13.26,16.39,22.18,22.32,10.36,6.88,20.8,7,31.37.54a20,20,0,0,0,10.14-17.79c0-5.44-.47-11.21-2.32-16.25a228.73,228.73,0,0,0-12.68-28.86c-8.06-15.17-21.57-22.82-38.29-25.15-4.52-.64-9.07-1.09-13.72-1.64V213.83Z"/><path class="cls-1" d="M207.26,413.05C95.47,413.05,4.52,322.1,4.52,210.3S95.47,7.56,207.26,7.56,410,98.51,410,210.3,319.06,413.05,207.26,413.05Zm0-377.49C110.91,35.56,32.52,114,32.52,210.3s78.39,174.75,174.74,174.75S382,306.66,382,210.3,303.62,35.56,207.26,35.56Z"/></svg>